<svg xmlns="http://www.w3.org/2000/svg" xmlns:xlink="http://www.w3.org/1999/xlink" width="2000" zoomAndPan="magnify" viewBox="0 0 1500 1499.999933" height="2000" preserveAspectRatio="xMidYMid meet" version="1.0"><defs><g/><clipPath id="98ba51f372"><rect x="0" width="1091" y="0" height="1395"/></clipPath></defs><g transform="matrix(1, 0, 0, 1, 187, 105)"><g clip-path="url(#98ba51f372)"><g fill="#f1f1f1" fill-opacity="1"><g transform="translate(1.179271, 1199.375451)"><g><path d="M 47.1875 -569.734375 C 47.1875 -600.398438 49.546875 -632.640625 54.265625 -666.453125 C 58.984375 -700.265625 65.46875 -732.703125 73.71875 -763.765625 C 81.976562 -794.828125 91.21875 -822.15625 101.4375 -845.75 C 111.664062 -869.34375 121.890625 -886.640625 132.109375 -897.640625 C 161.203125 -929.890625 187.347656 -957.21875 210.546875 -979.625 C 233.742188 -1002.039062 256.941406 -1022.488281 280.140625 -1040.96875 C 303.335938 -1059.445312 329.484375 -1078.316406 358.578125 -1097.578125 C 387.679688 -1116.847656 422.675781 -1138.671875 463.5625 -1163.046875 C 467.5 -1165.410156 479.097656 -1169.34375 498.359375 -1174.84375 C 517.628906 -1180.34375 540.039062 -1185.453125 565.59375 -1190.171875 C 591.15625 -1194.890625 615.335938 -1197.25 638.140625 -1197.25 C 680.609375 -1197.25 723.070312 -1194.890625 765.53125 -1190.171875 C 808 -1185.453125 846.53125 -1177 881.125 -1164.8125 C 915.726562 -1152.625 943.445312 -1135.519531 964.28125 -1113.5 C 985.125 -1091.488281 995.546875 -1063.179688 995.546875 -1028.578125 C 995.546875 -1007.347656 986.109375 -988.867188 967.234375 -973.140625 C 948.367188 -957.410156 923.796875 -943.054688 893.515625 -930.078125 C 863.242188 -917.109375 830.804688 -903.742188 796.203125 -889.984375 C 761.597656 -876.222656 728.960938 -860.296875 698.296875 -842.203125 C 681.785156 -832.765625 659.175781 -820.769531 630.46875 -806.21875 C 601.769531 -791.675781 571.101562 -774.96875 538.46875 -756.09375 C 505.832031 -737.226562 474.570312 -717.175781 444.6875 -695.9375 C 414.8125 -674.707031 390.4375 -652.882812 371.5625 -630.46875 C 352.6875 -608.0625 343.25 -585.457031 343.25 -562.65625 C 343.25 -553.21875 346.785156 -542.007812 353.859375 -529.03125 C 360.941406 -516.0625 373.132812 -509.578125 390.4375 -509.578125 C 410.882812 -509.578125 433.6875 -516.847656 458.84375 -531.390625 C 484.007812 -545.941406 510.941406 -564.617188 539.640625 -587.421875 C 568.347656 -610.222656 598.035156 -634.597656 628.703125 -660.546875 C 659.367188 -686.503906 689.835938 -710.882812 720.109375 -733.6875 C 750.390625 -756.488281 779.488281 -775.160156 807.40625 -789.703125 C 835.320312 -804.253906 861.46875 -811.53125 885.84375 -811.53125 C 903.144531 -811.53125 918.875 -809.171875 933.03125 -804.453125 C 947.1875 -799.742188 958.195312 -787.953125 966.0625 -769.078125 C 980.21875 -736.835938 991.226562 -710.691406 999.09375 -690.640625 C 1006.957031 -670.585938 1013.441406 -654.070312 1018.546875 -641.09375 C 1023.660156 -628.113281 1028.378906 -616.507812 1032.703125 -606.28125 C 1037.023438 -596.0625 1042.332031 -584.269531 1048.625 -570.90625 C 1054.914062 -557.539062 1063.175781 -540.632812 1073.40625 -520.1875 C 1074.976562 -517.039062 1074.191406 -515.46875 1071.046875 -515.46875 C 1070.253906 -515.46875 1069.269531 -515.859375 1068.09375 -516.640625 C 1066.914062 -517.429688 1065.539062 -518.21875 1063.96875 -519 C 1053.738281 -523.71875 1042.53125 -528.632812 1030.34375 -533.75 C 1018.15625 -538.863281 1004.59375 -541.421875 989.65625 -541.421875 C 954.269531 -541.421875 922.617188 -534.734375 894.703125 -521.359375 C 866.785156 -507.992188 840.242188 -491.285156 815.078125 -471.234375 C 789.910156 -451.179688 764.546875 -431.128906 738.984375 -411.078125 C 713.429688 -391.023438 685.910156 -374.3125 656.421875 -360.9375 C 626.929688 -347.570312 593.707031 -340.890625 556.75 -340.890625 C 511.144531 -340.890625 469.070312 -353.078125 430.53125 -377.453125 C 392 -401.835938 362.90625 -433.296875 343.25 -471.828125 L 343.25 -294.890625 C 343.25 -243.773438 347.378906 -197.179688 355.640625 -155.109375 C 363.898438 -113.035156 377.859375 -79.613281 397.515625 -54.84375 C 417.171875 -30.070312 443.90625 -17.6875 477.71875 -17.6875 C 506.03125 -17.6875 535.910156 -25.75 567.359375 -41.875 C 598.816406 -58 630.078125 -79.625 661.140625 -106.75 C 692.203125 -133.882812 721.492188 -164.945312 749.015625 -199.9375 C 776.546875 -234.925781 800.53125 -271.488281 820.96875 -309.625 C 841.414062 -347.769531 856.359375 -385.320312 865.796875 -422.28125 C 885.453125 -421.5 906.878906 -415.796875 930.078125 -405.171875 C 953.273438 -394.554688 975.488281 -381.582031 996.71875 -366.25 C 1017.957031 -350.914062 1035.457031 -335.382812 1049.21875 -319.65625 C 1062.976562 -303.925781 1069.859375 -290.164062 1069.859375 -278.375 C 1069.859375 -246.132812 1058.847656 -212.710938 1036.828125 -178.109375 C 1014.816406 -143.515625 983.757812 -111.472656 943.65625 -81.984375 C 903.550781 -52.492188 855.382812 -28.507812 799.15625 -10.03125 C 742.925781 8.445312 680.601562 17.6875 612.1875 17.6875 C 531.976562 17.6875 457.664062 3.535156 389.25 -24.765625 C 320.84375 -53.078125 261.082031 -93.179688 209.96875 -145.078125 C 158.851562 -196.984375 118.941406 -258.910156 90.234375 -330.859375 C 61.535156 -402.816406 47.1875 -482.441406 47.1875 -569.734375 Z M 520.1875 -1120.578125 C 471.425781 -1120.578125 434.660156 -1114.285156 409.890625 -1101.703125 C 385.117188 -1089.128906 368.015625 -1072.617188 358.578125 -1052.171875 C 349.148438 -1031.722656 344.238281 -1009.898438 343.84375 -986.703125 C 343.445312 -963.503906 343.25 -941.679688 343.25 -921.234375 L 343.25 -632.25 C 343.25 -632.25 349.734375 -638.929688 362.703125 -652.296875 C 375.679688 -665.660156 395.144531 -682.566406 421.09375 -703.015625 C 447.050781 -723.460938 478.898438 -743.515625 516.640625 -763.171875 C 564.617188 -788.335938 602.367188 -809.765625 629.890625 -827.453125 C 657.410156 -845.148438 677.460938 -860.878906 690.046875 -874.640625 C 702.628906 -888.398438 710.492188 -901.175781 713.640625 -912.96875 C 716.785156 -924.769531 718.359375 -937.359375 718.359375 -950.734375 C 718.359375 -986.898438 709.507812 -1017.566406 691.8125 -1042.734375 C 674.113281 -1067.898438 650.320312 -1087.164062 620.4375 -1100.53125 C 590.5625 -1113.894531 557.144531 -1120.578125 520.1875 -1120.578125 Z M 520.1875 -1120.578125 "/></g></g></g></g></g></svg>