<svg xmlns="http://www.w3.org/2000/svg" xmlns:xlink="http://www.w3.org/1999/xlink" width="2000" zoomAndPan="magnify" viewBox="0 0 1500 1499.999933" height="2000" preserveAspectRatio="xMidYMid meet" version="1.0"><defs><g/><clipPath id="3ffad5486a"><rect x="0" width="670" y="0" height="224"/></clipPath></defs><g fill="#323232" fill-opacity="1"><g transform="translate(503.83503, 927.453798)"><g><path d="M 21.40625 -258.46875 C 21.40625 -272.375 22.472656 -287 24.609375 -302.34375 C 26.753906 -317.6875 29.695312 -332.398438 33.4375 -346.484375 C 37.1875 -360.578125 41.378906 -372.972656 46.015625 -383.671875 C 50.660156 -394.378906 55.300781 -402.234375 59.9375 -407.234375 C 73.132812 -421.859375 84.992188 -434.253906 95.515625 -444.421875 C 106.046875 -454.585938 116.570312 -463.863281 127.09375 -472.25 C 137.613281 -480.632812 149.472656 -489.195312 162.671875 -497.9375 C 175.878906 -506.675781 191.753906 -516.578125 210.296875 -527.640625 C 212.085938 -528.703125 217.351562 -530.484375 226.09375 -532.984375 C 234.832031 -535.484375 245 -537.800781 256.59375 -539.9375 C 268.1875 -542.082031 279.15625 -543.15625 289.5 -543.15625 C 308.769531 -543.15625 328.035156 -542.082031 347.296875 -539.9375 C 366.554688 -537.800781 384.035156 -533.96875 399.734375 -528.4375 C 415.429688 -522.90625 428.003906 -515.144531 437.453125 -505.15625 C 446.910156 -495.164062 451.640625 -482.320312 451.640625 -466.625 C 451.640625 -457 447.359375 -448.617188 438.796875 -441.484375 C 430.234375 -434.347656 419.082031 -427.832031 405.34375 -421.9375 C 391.613281 -416.050781 376.898438 -409.988281 361.203125 -403.75 C 345.503906 -397.507812 330.703125 -390.285156 316.796875 -382.078125 C 309.304688 -377.796875 299.050781 -372.351562 286.03125 -365.75 C 273.007812 -359.15625 259.09375 -351.578125 244.28125 -343.015625 C 229.476562 -334.453125 215.296875 -325.351562 201.734375 -315.71875 C 188.179688 -306.09375 177.125 -296.191406 168.5625 -286.015625 C 160 -275.847656 155.71875 -265.59375 155.71875 -255.25 C 155.71875 -250.96875 157.320312 -245.882812 160.53125 -240 C 163.75 -234.113281 169.28125 -231.171875 177.125 -231.171875 C 186.40625 -231.171875 196.75 -234.46875 208.15625 -241.0625 C 219.570312 -247.664062 231.789062 -256.140625 244.8125 -266.484375 C 257.84375 -276.835938 271.3125 -287.898438 285.21875 -299.671875 C 299.132812 -311.441406 312.957031 -322.5 326.6875 -332.84375 C 340.425781 -343.1875 353.628906 -351.660156 366.296875 -358.265625 C 378.960938 -364.867188 390.820312 -368.171875 401.875 -368.171875 C 409.726562 -368.171875 416.863281 -367.097656 423.28125 -364.953125 C 429.707031 -362.816406 434.703125 -357.46875 438.265625 -348.90625 C 444.691406 -334.28125 449.6875 -322.414062 453.25 -313.3125 C 456.820312 -304.21875 459.765625 -296.726562 462.078125 -290.84375 C 464.398438 -284.957031 466.539062 -279.691406 468.5 -275.046875 C 470.457031 -270.410156 472.863281 -265.0625 475.71875 -259 C 478.570312 -252.9375 482.320312 -245.265625 486.96875 -235.984375 C 487.675781 -234.554688 487.316406 -233.84375 485.890625 -233.84375 C 485.535156 -233.84375 485.085938 -234.019531 484.546875 -234.375 C 484.015625 -234.738281 483.394531 -235.097656 482.6875 -235.453125 C 478.039062 -237.597656 472.953125 -239.828125 467.421875 -242.140625 C 461.898438 -244.460938 455.75 -245.625 448.96875 -245.625 C 432.914062 -245.625 418.554688 -242.585938 405.890625 -236.515625 C 393.222656 -230.453125 381.179688 -222.875 369.765625 -213.78125 C 358.347656 -204.6875 346.84375 -195.585938 335.25 -186.484375 C 323.65625 -177.390625 311.171875 -169.8125 297.796875 -163.75 C 284.421875 -157.6875 269.347656 -154.65625 252.578125 -154.65625 C 231.890625 -154.65625 212.800781 -160.179688 195.3125 -171.234375 C 177.832031 -182.296875 164.632812 -196.566406 155.71875 -214.046875 L 155.71875 -133.78125 C 155.71875 -110.59375 157.585938 -89.453125 161.328125 -70.359375 C 165.078125 -51.273438 171.410156 -36.113281 180.328125 -24.875 C 189.253906 -13.644531 201.382812 -8.03125 216.71875 -8.03125 C 229.5625 -8.03125 243.117188 -11.6875 257.390625 -19 C 271.660156 -26.3125 285.84375 -36.117188 299.9375 -48.421875 C 314.03125 -60.734375 327.316406 -74.828125 339.796875 -90.703125 C 352.285156 -106.578125 363.164062 -123.164062 372.4375 -140.46875 C 381.71875 -157.769531 388.5 -174.804688 392.78125 -191.578125 C 401.695312 -191.222656 411.414062 -188.632812 421.9375 -183.8125 C 432.46875 -179 442.546875 -173.113281 452.171875 -166.15625 C 461.804688 -159.195312 469.742188 -152.148438 475.984375 -145.015625 C 482.234375 -137.878906 485.359375 -131.640625 485.359375 -126.296875 C 485.359375 -111.660156 480.363281 -96.492188 470.375 -80.796875 C 460.382812 -65.109375 446.289062 -50.570312 428.09375 -37.1875 C 409.90625 -23.8125 388.054688 -12.929688 362.546875 -4.546875 C 337.035156 3.835938 308.765625 8.03125 277.734375 8.03125 C 241.335938 8.03125 207.617188 1.605469 176.578125 -11.234375 C 145.546875 -24.078125 118.4375 -42.269531 95.25 -65.8125 C 72.0625 -89.363281 53.957031 -117.457031 40.9375 -150.09375 C 27.914062 -182.738281 21.40625 -218.863281 21.40625 -258.46875 Z M 235.984375 -508.375 C 213.867188 -508.375 197.191406 -505.519531 185.953125 -499.8125 C 174.710938 -494.101562 166.953125 -486.609375 162.671875 -477.328125 C 158.390625 -468.054688 156.160156 -458.15625 155.984375 -447.625 C 155.804688 -437.101562 155.71875 -427.207031 155.71875 -417.9375 L 155.71875 -286.828125 C 155.71875 -286.828125 158.660156 -289.859375 164.546875 -295.921875 C 170.429688 -301.984375 179.257812 -309.648438 191.03125 -318.921875 C 202.8125 -328.203125 217.265625 -337.300781 234.390625 -346.21875 C 256.148438 -357.632812 273.269531 -367.359375 285.75 -375.390625 C 298.238281 -383.421875 307.335938 -390.554688 313.046875 -396.796875 C 318.753906 -403.035156 322.320312 -408.832031 323.75 -414.1875 C 325.175781 -419.539062 325.890625 -425.25 325.890625 -431.3125 C 325.890625 -447.71875 321.875 -461.628906 313.84375 -473.046875 C 305.820312 -484.460938 295.03125 -493.203125 281.46875 -499.265625 C 267.914062 -505.335938 252.753906 -508.375 235.984375 -508.375 Z M 235.984375 -508.375 "/></g></g></g><g transform="matrix(1, 0, 0, 1, 407, 1003)"><g clip-path="url(#3ffad5486a)"><g fill="#323232" fill-opacity="1"><g transform="translate(0.766196, 176.967308)"><g><path d="M 9.625 -2.890625 L 21.1875 -5.78125 L 21.1875 -129.015625 L 9.625 -131.90625 L 9.625 -134.796875 L 112.65625 -134.796875 L 112.65625 -100.125 L 106.875 -100.125 C 104.4375 -102.050781 102.316406 -104.492188 100.515625 -107.453125 C 96.410156 -114.378906 94.359375 -121.890625 94.359375 -129.984375 L 52.953125 -129.984375 L 52.953125 -69.328125 L 75.09375 -69.328125 C 76 -74.203125 77.671875 -78.757812 80.109375 -83 C 81.128906 -84.925781 82.347656 -86.785156 83.765625 -88.578125 L 89.546875 -88.578125 L 89.546875 -45.25 L 83.765625 -45.25 C 82.347656 -47.050781 81.128906 -48.914062 80.109375 -50.84375 C 77.671875 -55.070312 76 -59.628906 75.09375 -64.515625 L 52.953125 -64.515625 L 52.953125 -4.8125 L 98.203125 -4.8125 C 98.203125 -12.90625 100.257812 -20.414062 104.375 -27.34375 C 106.164062 -30.289062 108.28125 -32.726562 110.71875 -34.65625 L 116.5 -34.65625 L 116.5 0 L 9.625 0 Z M 9.625 -2.890625 "/></g></g></g><g fill="#323232" fill-opacity="1"><g transform="translate(124.966546, 176.967308)"><g><path d="M 7.703125 -2.890625 L 19.25 -5.78125 L 19.25 -129.015625 L 7.703125 -131.90625 L 7.703125 -134.796875 L 32.734375 -134.796875 C 44.285156 -134.796875 50.0625 -129.019531 50.0625 -117.46875 L 50.0625 -5.78125 L 61.625 -2.890625 L 61.625 0 L 7.703125 0 Z M 7.703125 -2.890625 "/></g></g></g><g fill="#323232" fill-opacity="1"><g transform="translate(190.436502, 176.967308)"><g><path d="M 58.734375 2.890625 C 42.816406 2.890625 30.332031 -1.632812 21.28125 -10.6875 C 12.226562 -19.738281 7.703125 -32.222656 7.703125 -48.140625 C 7.703125 -64.054688 12.226562 -76.539062 21.28125 -85.59375 C 30.332031 -94.644531 42.816406 -99.171875 58.734375 -99.171875 C 74.648438 -99.171875 87.132812 -94.644531 96.1875 -85.59375 C 105.238281 -76.539062 109.765625 -64.054688 109.765625 -48.140625 C 109.765625 -32.222656 105.238281 -19.738281 96.1875 -10.6875 C 87.132812 -1.632812 74.648438 2.890625 58.734375 2.890625 Z M 58.734375 -0.96875 C 63.867188 -0.96875 68.203125 -4.5625 71.734375 -11.75 C 75.265625 -18.9375 77.03125 -31.066406 77.03125 -48.140625 C 77.03125 -65.210938 75.265625 -77.34375 71.734375 -84.53125 C 68.203125 -91.71875 63.867188 -95.3125 58.734375 -95.3125 C 53.597656 -95.3125 49.265625 -91.71875 45.734375 -84.53125 C 42.203125 -77.34375 40.4375 -65.210938 40.4375 -48.140625 C 40.4375 -31.066406 42.203125 -18.9375 45.734375 -11.75 C 49.265625 -4.5625 53.597656 -0.96875 58.734375 -0.96875 Z M 58.734375 -0.96875 "/></g></g></g><g fill="#323232" fill-opacity="1"><g transform="translate(307.8973, 176.967308)"><g><path d="M 60.65625 35.625 L 72.21875 32.734375 L 72.21875 -4.8125 C 70.15625 -3.144531 68.160156 -1.863281 66.234375 -0.96875 C 61.617188 1.601562 56.226562 2.890625 50.0625 2.890625 C 37.101562 2.890625 26.800781 -1.503906 19.15625 -10.296875 C 11.519531 -19.097656 7.703125 -31.710938 7.703125 -48.140625 C 7.703125 -59.054688 9.429688 -68.332031 12.890625 -75.96875 C 16.359375 -83.601562 21.046875 -89.378906 26.953125 -93.296875 C 32.859375 -97.210938 39.597656 -99.171875 47.171875 -99.171875 C 55.773438 -99.171875 62.96875 -96.28125 68.75 -90.5 C 71.1875 -88.0625 73.300781 -85.175781 75.09375 -81.84375 C 76 -84.664062 77.539062 -87.234375 79.71875 -89.546875 C 84.59375 -94.679688 91.71875 -97.25 101.09375 -97.25 L 103.015625 -97.25 L 103.015625 32.734375 L 114.578125 35.625 L 114.578125 38.515625 L 60.65625 38.515625 Z M 57.765625 -2.890625 C 60.972656 -2.890625 64.3125 -4.171875 67.78125 -6.734375 C 69.320312 -7.890625 70.800781 -9.175781 72.21875 -10.59375 L 72.21875 -77.03125 C 70.675781 -80.238281 69.195312 -82.804688 67.78125 -84.734375 C 63.925781 -89.867188 59.625 -92.4375 54.875 -92.4375 C 50.769531 -92.4375 47.335938 -89.191406 44.578125 -82.703125 C 41.816406 -76.222656 40.4375 -64.703125 40.4375 -48.140625 C 40.4375 -30.804688 41.941406 -18.929688 44.953125 -12.515625 C 47.972656 -6.097656 52.242188 -2.890625 57.765625 -2.890625 Z M 57.765625 -2.890625 "/></g></g></g><g fill="#323232" fill-opacity="1"><g transform="translate(426.320897, 176.967308)"><g><path d="M 53.921875 2.890625 C 46.734375 2.890625 40.28125 1.382812 34.5625 -1.625 C 28.851562 -4.644531 24.394531 -8.59375 21.1875 -13.46875 C 17.976562 -18.351562 16.375 -23.492188 16.375 -28.890625 L 16.375 -90.5 L 4.8125 -93.390625 L 4.8125 -96.28125 L 29.84375 -96.28125 C 41.394531 -96.28125 47.171875 -90.503906 47.171875 -78.953125 L 47.171875 -28.890625 C 47.171875 -20.796875 48.613281 -14.597656 51.5 -10.296875 C 54.394531 -5.992188 57.769531 -3.84375 61.625 -3.84375 C 66.375 -3.84375 70.671875 -6.410156 74.515625 -11.546875 C 75.929688 -13.472656 77.410156 -16.039062 78.953125 -19.25 L 78.953125 -90.5 L 67.390625 -93.390625 L 67.390625 -96.28125 L 121.3125 -96.28125 L 121.3125 -93.390625 L 109.765625 -90.5 L 109.765625 0.96875 L 107.828125 0.96875 C 98.460938 0.96875 91.335938 -1.597656 86.453125 -6.734375 C 84.273438 -9.046875 82.738281 -11.613281 81.84375 -14.4375 C 80.039062 -11.226562 77.921875 -8.34375 75.484375 -5.78125 C 69.703125 0 62.515625 2.890625 53.921875 2.890625 Z M 53.921875 2.890625 "/></g></g></g><g fill="#323232" fill-opacity="1"><g transform="translate(551.484059, 176.967308)"><g><path d="M 58.734375 2.890625 C 42.816406 2.890625 30.332031 -1.632812 21.28125 -10.6875 C 12.226562 -19.738281 7.703125 -32.222656 7.703125 -48.140625 C 7.703125 -64.054688 12.226562 -76.539062 21.28125 -85.59375 C 30.332031 -94.644531 42.816406 -99.171875 58.734375 -99.171875 C 74.648438 -99.171875 87.132812 -94.644531 96.1875 -85.59375 C 105.238281 -76.539062 109.765625 -64.054688 109.765625 -48.140625 C 109.765625 -32.222656 105.238281 -19.738281 96.1875 -10.6875 C 87.132812 -1.632812 74.648438 2.890625 58.734375 2.890625 Z M 58.734375 -0.96875 C 63.867188 -0.96875 68.203125 -4.5625 71.734375 -11.75 C 75.265625 -18.9375 77.03125 -31.066406 77.03125 -48.140625 C 77.03125 -65.210938 75.265625 -77.34375 71.734375 -84.53125 C 68.203125 -91.71875 63.867188 -95.3125 58.734375 -95.3125 C 53.597656 -95.3125 49.265625 -91.71875 45.734375 -84.53125 C 42.203125 -77.34375 40.4375 -65.210938 40.4375 -48.140625 C 40.4375 -31.066406 42.203125 -18.9375 45.734375 -11.75 C 49.265625 -4.5625 53.597656 -0.96875 58.734375 -0.96875 Z M 58.734375 -0.96875 "/></g></g></g></g></g></svg>